<svg xmlns="http://www.w3.org/2000/svg" width="30" height="26" viewBox="0 0 30 26">
  <path fill="#2D2D2D" d="M655.736531,503.263429 C655.556823,503.083742 655.308208,502.988069 655.054672,503.001193 C654.314161,503.038806 647.733055,503.454599 644.741948,506.445355 C642.469202,508.717833 641.961075,511.887046 643.368035,514.107088 C642.285159,515.16359 641.442635,516.418761 640.877671,517.792512 C640.720698,517.470107 640.534896,517.165513 640.320559,516.880662 C639.981183,516.429775 639.583388,516.037476 639.135261,515.705873 C639.367762,514.710008 639.231179,513.652042 638.730493,512.659693 C638.128616,511.466566 637.048728,510.48652 635.689639,509.899946 C634.281332,509.292045 632.357338,509.181726 629.971389,509.572561 C628.200971,509.86245 626.766062,510.340521 626.607975,510.394187 C626.368501,510.475623 626.173559,510.655368 626.073305,510.887549 C625.97305,511.11973 625.975687,511.384837 626.080863,511.61567 C626.150121,511.767294 626.786511,513.139639 627.789406,514.626287 C629.141464,516.630436 630.541158,517.954916 631.949465,518.562874 C632.771364,518.91762 633.620157,519.085589 634.435786,519.085589 C636.012785,519.085589 637.464452,518.456832 638.35262,517.335532 C638.558051,517.516567 638.7452,517.718458 638.912252,517.940327 C639.257254,518.398713 639.497255,518.937949 639.625693,519.542979 L640.058937,521.584623 C640.054191,521.717147 640.050968,521.849906 640.050968,521.983016 L640.050968,527.674522 C640.050968,528.161088 640.445482,528.555556 640.932105,528.555556 C641.418729,528.555556 641.813242,528.161088 641.813242,527.674522 L641.813242,521.983016 C641.813242,519.491949 642.807642,517.132645 644.564994,515.400575 C645.450174,516.059915 646.531995,516.384605 647.662567,516.384605 C649.352419,516.384605 651.14938,515.661698 652.554289,514.256954 C655.546335,511.26526 655.961356,504.685866 655.998798,503.945793 C656.011981,503.691877 655.916239,503.443116 655.736531,503.263429 Z M637.281463,515.723156 C637.281287,515.723566 637.281112,515.724035 637.280936,515.724445 C637.280819,515.724679 637.28076,515.724972 637.280643,515.725206 C636.634702,517.221522 634.556372,517.768609 632.648023,516.944873 C630.818893,516.155353 629.084393,513.572656 628.126439,511.773797 C630.093031,511.237021 633.161951,510.728075 634.991198,511.517654 C635.971711,511.940829 636.740875,512.628232 637.157009,513.453197 C637.540449,514.213307 637.58457,515.019348 637.281463,515.723156 Z M651.308346,513.010923 C649.457712,514.861456 646.758695,515.173784 645.291794,513.707114 C643.800107,512.215602 644.105968,509.573205 645.988067,507.691328 C647.979268,505.700361 652.224991,505.043482 654.157773,504.842352 C653.956913,506.77438 653.300191,511.019253 651.308346,513.010923 Z" transform="translate(-626 -503)"/>
</svg>
