<svg xmlns="http://www.w3.org/2000/svg" xmlns:xlink="http://www.w3.org/1999/xlink" width="38" height="33" viewBox="0 0 38 33">
  <defs>
    <path id="shape-copy-b" d="M33.7365308,2.2634288 C33.5568229,2.08374204 33.3082085,1.98806924 33.0546721,2.00119276 C32.3141608,2.0388057 25.7330555,2.45459863 22.7419476,5.44535494 C20.4692025,7.71783291 19.961075,10.8870456 21.3680348,13.1070881 C20.2851586,14.16359 19.4426351,15.4187609 18.8776715,16.7925121 C18.7206981,16.4701071 18.5348964,16.1655126 18.3205595,15.8806619 C17.9811829,15.4297753 17.583388,15.0374758 17.1352609,14.7058726 C17.367762,13.7100084 17.2311793,12.6520418 16.7304934,11.6596928 C16.1286155,10.4665657 15.0487276,9.48652006 13.6896391,8.89994562 C12.2813317,8.29204546 10.3573382,8.18172588 7.97138945,8.57256069 C6.20097093,8.86244985 4.7660618,9.34052091 4.60797511,9.39418673 C4.36850133,9.47562286 4.173559,9.6553682 4.07330462,9.88754904 C3.97305024,10.1197299 3.97568697,10.3848367 4.08086325,10.61567 C4.15012139,10.7672935 4.78651112,12.1396387 5.78940648,13.6262874 C7.14146366,15.6304362 8.54115777,16.9549157 9.94946521,17.5628744 C10.7713636,17.9176196 11.6201567,18.0855889 12.4357856,18.0855889 C14.0127852,18.0855889 15.4644522,17.4568317 16.3526205,16.3355324 C16.5580511,16.5165667 16.7452005,16.718458 16.912252,16.9403275 C17.2572537,17.3987133 17.4972548,17.9379493 17.6256929,18.5429787 L18.0589371,20.5846233 C18.054191,20.7171474 18.0509684,20.8499059 18.0509684,20.9830159 L18.0509684,26.6745221 C18.0509684,27.1610883 18.4454819,27.5555556 18.9321053,27.5555556 C19.4187287,27.5555556 19.8132423,27.1610883 19.8132423,26.6745221 L19.8132423,20.9830159 C19.8132423,18.4919493 20.8076416,16.1326452 22.5649936,14.400575 C23.4501736,15.0599147 24.5319951,15.3846046 25.6625668,15.3846046 C27.3524186,15.3846046 29.1493802,14.6616979 30.5542892,13.256954 C33.5463346,10.2652603 33.9613561,3.68586596 33.9987977,2.94579321 C34.0119813,2.69187655 33.9162387,2.44311555 33.7365308,2.2634288 Z M15.2814631,14.7231558 C15.2812873,14.7235659 15.2811115,14.7240346 15.2809357,14.7244447 C15.2808185,14.724679 15.28076,14.724972 15.2806428,14.7252063 C14.6347022,16.2215219 12.5563721,16.7686086 10.6480232,15.9448734 C8.81889346,15.1553531 7.08439307,12.5726562 6.12643933,10.7737967 C8.09303065,10.2370213 11.1619514,9.72807484 12.9911983,10.5176537 C13.9717108,10.9408286 14.7408746,11.6282315 15.1570094,12.4531971 C15.5404487,13.2133066 15.58457,14.0193485 15.2814631,14.7231558 Z M29.3083458,12.0109227 C27.4577121,13.8614561 24.7586954,14.1737842 23.2917939,12.7071137 C21.8001072,11.2156023 22.105968,8.57320515 23.9880667,6.69132763 C25.9792676,4.70036087 30.2249908,4.04348186 32.1577733,3.84235221 C31.956913,5.77438031 31.3001912,10.0192529 29.3083458,12.0109227 Z"/>
    <filter id="shape-copy-a" width="146.7%" height="154.8%" x="-23.3%" y="-19.6%" filterUnits="objectBoundingBox">
      <feOffset dy="2" in="SourceAlpha" result="shadowOffsetOuter1"/>
      <feGaussianBlur in="shadowOffsetOuter1" result="shadowBlurOuter1" stdDeviation="2"/>
      <feColorMatrix in="shadowBlurOuter1" values="0 0 0 0 0.649845876   0 0 0 0 0.649845876   0 0 0 0 0.649845876  0 0 0 0.5 0"/>
    </filter>
  </defs>
  <g fill="none">
    <use fill="#000" filter="url(#shape-copy-a)" xlink:href="#shape-copy-b"/>
    <use fill="#FFF" xlink:href="#shape-copy-b"/>
  </g>
</svg>
