<svg xmlns="http://www.w3.org/2000/svg" width="32" height="29" viewBox="0 0 32 29">
  <g fill="none" stroke="#FFF" stroke-width="1.5" transform="translate(1 -4)">
    <path stroke-linecap="round" stroke-linejoin="round" d="M-4.79616347e-14,25.5323802 L6.18166526,31.5121951 C7.20773759,30.6879731 8.19175778,30.2758621 9.13372582,30.2758621 C10.5466779,30.2758621 10.5466779,30.2758621 19.0243902,30.2758621 C27.5021026,30.2758621 30.9840202,24.2455845 28.9150547,24.2455845 C26.8460892,24.2455845 24.6509672,26.7560976 20.5130362,26.7560976 C16.3751051,26.7560976 13.9529016,27.2733389 11.8334735,25.8603869 C9.71404542,24.4474348 18.8982338,24.4474348 20.3111859,24.4474348 C21.7241379,24.4474348 21.5979815,22 19.4785534,22 C17.3591253,22 12.0100925,22 7.0647603,22 C3.76787216,22 1.41295206,23.1774601 -4.79616347e-14,25.5323802 Z"/>
    <path d="M9.37296611,14.5377668 L8.62296611,14.5377668 L9.37296611,15.2877668 L9.37296611,14.5377668 Z M9.37296611,7.76190475 L9.37296611,7.01190475 L8.62296611,7.01190475 L8.62296611,7.76190475 L9.37296611,7.76190475 Z M16.1488282,7.76190475 L16.8988282,7.76190475 L16.8988282,7.01190475 L16.1488282,7.01190475 L16.1488282,7.76190475 Z M16.1488282,14.5377668 L16.1488282,15.2877668 L16.8988282,15.2877668 L16.8988282,14.5377668 L16.1488282,14.5377668 Z" transform="rotate(-45 14.955 8.955)"/>
  </g>
</svg>
