<svg xmlns="http://www.w3.org/2000/svg" width="32" height="28" viewBox="0 0 32 28">
  <g fill="none" stroke="#2D2D2D" stroke-width="1.5" transform="translate(1 -4)">
    <path stroke-linecap="round" stroke-linejoin="round" d="M0.176619008,25.2565181 L6.35828427,31.2363331 C7.3843566,30.412111 8.36837679,30 9.31034483,30 C10.7232969,30 10.7232969,30 19.2010093,30 C27.6787216,30 31.1606392,23.9697225 29.0916737,23.9697225 C27.0227082,23.9697225 24.8275862,26.4802355 20.6896552,26.4802355 C16.5517241,26.4802355 14.1295206,26.9974769 12.0100925,25.5845248 C9.89066442,24.1715728 19.0748528,24.1715728 20.4878049,24.1715728 C21.9007569,24.1715728 21.7746005,21.7241379 19.6551724,21.7241379 C17.5357443,21.7241379 12.1867115,21.7241379 7.24137931,21.7241379 C3.94449117,21.7241379 1.58957107,22.901598 0.176619008,25.2565181 Z"/>
    <path d="M9.57986266,14.5377668 L8.82986266,14.5377668 L9.57986266,15.2877668 L9.57986266,14.5377668 Z M9.57986266,7.76190475 L9.57986266,7.01190475 L8.82986266,7.01190475 L8.82986266,7.76190475 L9.57986266,7.76190475 Z M16.3557247,7.76190475 L17.1057247,7.76190475 L17.1057247,7.01190475 L16.3557247,7.01190475 L16.3557247,7.76190475 Z M16.3557247,14.5377668 L16.3557247,15.2877668 L17.1057247,15.2877668 L17.1057247,14.5377668 L16.3557247,14.5377668 Z" transform="rotate(-45 15.162 8.955)"/>
  </g>
</svg>
